<mxfile host="Electron" modified="2023-10-11T07:19:47.497Z" agent="Mozilla/5.0 (Windows NT 10.0; Win64; x64) AppleWebKit/537.36 (KHTML, like Gecko) draw.io/21.5.0 Chrome/112.0.5615.204 Electron/24.5.1 Safari/537.36" etag="35ObgrPFvzaz1ldbPd3A" version="21.5.0" type="device">
  <diagram name="Página-1" id="oxvNFSQalAuDzYxqC52X">
    <mxGraphModel dx="1418" dy="820" grid="1" gridSize="10" guides="1" tooltips="1" connect="1" arrows="1" fold="1" page="1" pageScale="1" pageWidth="827" pageHeight="1169" math="0" shadow="0">
      <root>
        <mxCell id="0" />
        <mxCell id="1" parent="0" />
        <mxCell id="9lxRZQgIBa-zodBFmp1G-8" value="" style="edgeStyle=orthogonalEdgeStyle;rounded=0;orthogonalLoop=1;jettySize=auto;html=1;" parent="1" target="9lxRZQgIBa-zodBFmp1G-2" edge="1">
          <mxGeometry relative="1" as="geometry">
            <mxPoint x="364" y="110" as="sourcePoint" />
          </mxGeometry>
        </mxCell>
        <mxCell id="9lxRZQgIBa-zodBFmp1G-1" value="Suma 100" style="strokeWidth=2;html=1;shape=mxgraph.flowchart.start_2;whiteSpace=wrap;" parent="1" vertex="1">
          <mxGeometry x="294" y="60" width="140" height="50" as="geometry" />
        </mxCell>
        <mxCell id="9lxRZQgIBa-zodBFmp1G-9" value="" style="edgeStyle=orthogonalEdgeStyle;rounded=0;orthogonalLoop=1;jettySize=auto;html=1;" parent="1" source="9lxRZQgIBa-zodBFmp1G-2" target="9lxRZQgIBa-zodBFmp1G-3" edge="1">
          <mxGeometry relative="1" as="geometry" />
        </mxCell>
        <mxCell id="9lxRZQgIBa-zodBFmp1G-2" value="suma ← 0" style="rounded=1;whiteSpace=wrap;html=1;absoluteArcSize=1;arcSize=14;strokeWidth=2;" parent="1" vertex="1">
          <mxGeometry x="294" y="150" width="140" height="40" as="geometry" />
        </mxCell>
        <mxCell id="9lxRZQgIBa-zodBFmp1G-10" value="" style="edgeStyle=orthogonalEdgeStyle;rounded=0;orthogonalLoop=1;jettySize=auto;html=1;" parent="1" source="9lxRZQgIBa-zodBFmp1G-3" target="9lxRZQgIBa-zodBFmp1G-7" edge="1">
          <mxGeometry relative="1" as="geometry" />
        </mxCell>
        <mxCell id="9lxRZQgIBa-zodBFmp1G-3" value="i ← 1" style="rounded=1;whiteSpace=wrap;html=1;absoluteArcSize=1;arcSize=14;strokeWidth=2;" parent="1" vertex="1">
          <mxGeometry x="314" y="270" width="100" height="40" as="geometry" />
        </mxCell>
        <mxCell id="9lxRZQgIBa-zodBFmp1G-16" value="" style="edgeStyle=orthogonalEdgeStyle;rounded=0;orthogonalLoop=1;jettySize=auto;html=1;" parent="1" source="9lxRZQgIBa-zodBFmp1G-4" target="9lxRZQgIBa-zodBFmp1G-5" edge="1">
          <mxGeometry relative="1" as="geometry" />
        </mxCell>
        <mxCell id="9lxRZQgIBa-zodBFmp1G-4" value="i &amp;gt; 100" style="strokeWidth=2;html=1;shape=mxgraph.flowchart.decision;whiteSpace=wrap;" parent="1" vertex="1">
          <mxGeometry x="306" y="370" width="116" height="60" as="geometry" />
        </mxCell>
        <mxCell id="9lxRZQgIBa-zodBFmp1G-19" style="edgeStyle=orthogonalEdgeStyle;rounded=0;orthogonalLoop=1;jettySize=auto;html=1;exitX=0.5;exitY=1;exitDx=0;exitDy=0;entryX=0.5;entryY=1;entryDx=0;entryDy=0;" parent="1" source="9lxRZQgIBa-zodBFmp1G-5" target="9lxRZQgIBa-zodBFmp1G-6" edge="1">
          <mxGeometry relative="1" as="geometry" />
        </mxCell>
        <mxCell id="9lxRZQgIBa-zodBFmp1G-5" value="suma ← suma + i" style="rounded=1;whiteSpace=wrap;html=1;absoluteArcSize=1;arcSize=14;strokeWidth=2;" parent="1" vertex="1">
          <mxGeometry x="294" y="470" width="140" height="40" as="geometry" />
        </mxCell>
        <mxCell id="9lxRZQgIBa-zodBFmp1G-13" style="edgeStyle=orthogonalEdgeStyle;rounded=0;orthogonalLoop=1;jettySize=auto;html=1;entryX=1;entryY=0.5;entryDx=0;entryDy=0;entryPerimeter=0;" parent="1" source="9lxRZQgIBa-zodBFmp1G-6" target="9lxRZQgIBa-zodBFmp1G-7" edge="1">
          <mxGeometry relative="1" as="geometry">
            <Array as="points">
              <mxPoint x="560" y="345" />
            </Array>
          </mxGeometry>
        </mxCell>
        <mxCell id="9lxRZQgIBa-zodBFmp1G-6" value="i ← i + 1" style="rounded=1;whiteSpace=wrap;html=1;absoluteArcSize=1;arcSize=14;strokeWidth=2;" parent="1" vertex="1">
          <mxGeometry x="510" y="390" width="100" height="40" as="geometry" />
        </mxCell>
        <mxCell id="9lxRZQgIBa-zodBFmp1G-11" value="" style="edgeStyle=orthogonalEdgeStyle;rounded=0;orthogonalLoop=1;jettySize=auto;html=1;" parent="1" source="9lxRZQgIBa-zodBFmp1G-7" target="9lxRZQgIBa-zodBFmp1G-4" edge="1">
          <mxGeometry relative="1" as="geometry" />
        </mxCell>
        <mxCell id="9lxRZQgIBa-zodBFmp1G-12" value="" style="edgeStyle=orthogonalEdgeStyle;rounded=0;orthogonalLoop=1;jettySize=auto;html=1;" parent="1" source="9lxRZQgIBa-zodBFmp1G-7" target="9lxRZQgIBa-zodBFmp1G-4" edge="1">
          <mxGeometry relative="1" as="geometry" />
        </mxCell>
        <mxCell id="9lxRZQgIBa-zodBFmp1G-7" value="" style="verticalLabelPosition=bottom;verticalAlign=top;html=1;shape=mxgraph.flowchart.on-page_reference;" parent="1" vertex="1">
          <mxGeometry x="359" y="340" width="10" height="10" as="geometry" />
        </mxCell>
        <mxCell id="9lxRZQgIBa-zodBFmp1G-17" value="No" style="text;html=1;strokeColor=none;fillColor=none;align=center;verticalAlign=middle;whiteSpace=wrap;rounded=0;" parent="1" vertex="1">
          <mxGeometry x="359" y="420" width="60" height="30" as="geometry" />
        </mxCell>
        <mxCell id="9lxRZQgIBa-zodBFmp1G-18" value="Si" style="text;html=1;strokeColor=none;fillColor=none;align=center;verticalAlign=middle;whiteSpace=wrap;rounded=0;" parent="1" vertex="1">
          <mxGeometry x="280" y="360" width="60" height="30" as="geometry" />
        </mxCell>
        <mxCell id="9lxRZQgIBa-zodBFmp1G-24" style="edgeStyle=orthogonalEdgeStyle;rounded=0;orthogonalLoop=1;jettySize=auto;html=1;exitX=0;exitY=0.5;exitDx=0;exitDy=0;exitPerimeter=0;entryX=0;entryY=0.5;entryDx=0;entryDy=0;entryPerimeter=0;" parent="1" source="9lxRZQgIBa-zodBFmp1G-21" target="9lxRZQgIBa-zodBFmp1G-4" edge="1">
          <mxGeometry relative="1" as="geometry">
            <Array as="points">
              <mxPoint x="322" y="630" />
              <mxPoint x="210" y="630" />
              <mxPoint x="210" y="400" />
            </Array>
          </mxGeometry>
        </mxCell>
        <mxCell id="9lxRZQgIBa-zodBFmp1G-29" value="" style="edgeStyle=orthogonalEdgeStyle;rounded=0;orthogonalLoop=1;jettySize=auto;html=1;" parent="1" source="9lxRZQgIBa-zodBFmp1G-21" target="9lxRZQgIBa-zodBFmp1G-22" edge="1">
          <mxGeometry relative="1" as="geometry" />
        </mxCell>
        <mxCell id="9lxRZQgIBa-zodBFmp1G-21" value="suma" style="strokeWidth=2;html=1;shape=mxgraph.flowchart.document2;whiteSpace=wrap;size=0.25;" parent="1" vertex="1">
          <mxGeometry x="322" y="610" width="100" height="60" as="geometry" />
        </mxCell>
        <mxCell id="9lxRZQgIBa-zodBFmp1G-22" value="Fin" style="strokeWidth=2;html=1;shape=mxgraph.flowchart.start_2;whiteSpace=wrap;" parent="1" vertex="1">
          <mxGeometry x="302" y="730" width="140" height="50" as="geometry" />
        </mxCell>
      </root>
    </mxGraphModel>
  </diagram>
</mxfile>
